<svg width="121" height="30" viewBox="0 0 121 30" fill="none" xmlns="http://www.w3.org/2000/svg">
<path d="M0.394043 0.727886H6.85404V23.4519H19.888V28.9999H0.394043V0.727886ZM39.192 29.6839C37.0387 29.6839 35.1007 29.3166 33.378 28.5819C31.6554 27.8472 30.186 26.8212 28.97 25.5039C27.754 24.1866 26.823 22.6286 26.177 20.8299C25.531 19.0312 25.208 17.0806 25.208 14.9779C25.208 12.8499 25.531 10.8866 26.177 9.08788C26.823 7.28922 27.754 5.73755 28.97 4.43289C30.186 3.12822 31.6554 2.10222 33.378 1.35489C35.1007 0.607555 37.0387 0.233889 39.192 0.233887C41.32 0.233889 43.2454 0.607555 44.968 1.35489C46.6907 2.10222 48.16 3.12822 49.376 4.43289C50.592 5.73755 51.523 7.28922 52.169 9.08788C52.815 10.8866 53.138 12.8499 53.138 14.9779C53.138 17.0806 52.815 19.0312 52.169 20.8299C51.523 22.6286 50.592 24.1866 49.376 25.5039C48.16 26.8212 46.6907 27.8472 44.968 28.5819C43.2454 29.3166 41.32 29.6839 39.192 29.6839ZM39.23 24.3639C40.446 24.3639 41.51 24.1232 42.422 23.6419C43.334 23.1606 44.094 22.5019 44.702 21.6659C45.31 20.8299 45.766 19.8419 46.07 18.7019C46.374 17.5619 46.526 16.3206 46.526 14.9779C46.526 13.6352 46.374 12.3876 46.07 11.2349C45.766 10.0822 45.31 9.07522 44.702 8.21389C44.094 7.35255 43.334 6.68122 42.422 6.19989C41.51 5.71855 40.446 5.47789 39.23 5.47789C38.014 5.47789 36.9437 5.71855 36.019 6.19989C35.0944 6.68122 34.3217 7.35255 33.701 8.21389C33.0804 9.07522 32.6117 10.0822 32.295 11.2349C31.9784 12.3876 31.82 13.6352 31.82 14.9779C31.82 16.3206 31.9784 17.5619 32.295 18.7019C32.6117 19.8419 33.0804 20.8299 33.701 21.6659C34.3217 22.5019 35.0944 23.1606 36.019 23.6419C36.9437 24.1232 38.014 24.3639 39.23 24.3639ZM81.068 25.1999H80.954C80.118 26.7706 78.9907 27.9042 77.572 28.6009C76.1534 29.2976 74.57 29.6459 72.822 29.6459C70.7954 29.6459 68.9777 29.2976 67.369 28.6009C65.7604 27.9042 64.3734 26.9352 63.208 25.6939C61.9667 24.3512 61.0294 22.7742 60.396 20.9629C59.7627 19.1516 59.446 17.1566 59.446 14.9779C59.446 12.5459 59.864 10.3229 60.7 8.30889C61.536 6.29489 62.752 4.61655 64.348 3.27389C65.488 2.31122 66.7927 1.56389 68.262 1.03189C69.7314 0.499887 71.4034 0.233889 73.278 0.233887C75.0514 0.233889 76.6474 0.461887 78.066 0.917887C79.4847 1.37389 80.7134 2.00722 81.752 2.81789C82.7907 3.62855 83.633 4.59756 84.279 5.72489C84.925 6.85222 85.3747 8.08722 85.6281 9.42989H79.168C78.8134 8.36589 78.18 7.46022 77.268 6.71288C76.356 5.96555 75.0894 5.59188 73.468 5.59188C72.2014 5.59188 71.1057 5.83255 70.181 6.31389C69.2564 6.79522 68.4837 7.45389 67.863 8.28989C67.2424 9.12589 66.78 10.1202 66.476 11.2729C66.172 12.4256 66.02 13.6606 66.02 14.9779C66.02 16.3459 66.1974 17.5999 66.552 18.7399C66.9067 19.8799 67.407 20.8679 68.053 21.7039C68.6991 22.5399 69.4844 23.1922 70.409 23.6609C71.3337 24.1296 72.3787 24.3639 73.544 24.3639C74.532 24.3639 75.425 24.2056 76.223 23.8889C77.021 23.5722 77.6924 23.1606 78.237 22.6539C78.7817 22.1472 79.206 21.5582 79.51 20.8869C79.814 20.2156 79.966 19.5252 79.966 18.8159V18.7019H74.266V13.8759H86.084V28.9999H81.6L81.068 25.1999ZM106.946 29.6839C104.793 29.6839 102.855 29.3166 101.132 28.5819C99.4094 27.8472 97.94 26.8212 96.724 25.5039C95.508 24.1866 94.577 22.6286 93.931 20.8299C93.285 19.0312 92.9621 17.0806 92.9621 14.9779C92.9621 12.8499 93.285 10.8866 93.931 9.08788C94.577 7.28922 95.508 5.73755 96.724 4.43289C97.94 3.12822 99.4094 2.10222 101.132 1.35489C102.855 0.607555 104.793 0.233889 106.946 0.233887C109.074 0.233889 110.999 0.607555 112.722 1.35489C114.445 2.10222 115.914 3.12822 117.13 4.43289C118.346 5.73755 119.277 7.28922 119.923 9.08788C120.569 10.8866 120.892 12.8499 120.892 14.9779C120.892 17.0806 120.569 19.0312 119.923 20.8299C119.277 22.6286 118.346 24.1866 117.13 25.5039C115.914 26.8212 114.445 27.8472 112.722 28.5819C110.999 29.3166 109.074 29.6839 106.946 29.6839ZM106.984 24.3639C108.2 24.3639 109.264 24.1232 110.176 23.6419C111.088 23.1606 111.848 22.5019 112.456 21.6659C113.064 20.8299 113.52 19.8419 113.824 18.7019C114.128 17.5619 114.28 16.3206 114.28 14.9779C114.28 13.6352 114.128 12.3876 113.824 11.2349C113.52 10.0822 113.064 9.07522 112.456 8.21389C111.848 7.35255 111.088 6.68122 110.176 6.19989C109.264 5.71855 108.2 5.47789 106.984 5.47789C105.768 5.47789 104.698 5.71855 103.773 6.19989C102.848 6.68122 102.076 7.35255 101.455 8.21389C100.834 9.07522 100.366 10.0822 100.049 11.2349C99.7324 12.3876 99.5741 13.6352 99.5741 14.9779C99.5741 16.3206 99.7324 17.5619 100.049 18.7019C100.366 19.8419 100.834 20.8299 101.455 21.6659C102.076 22.5019 102.848 23.1606 103.773 23.6419C104.698 24.1232 105.768 24.3639 106.984 24.3639Z" fill="#0C162C"/>
</svg>
