<svg width="16" height="16" viewBox="0 0 16 16" fill="none" xmlns="http://www.w3.org/2000/svg">
<path d="M15.5436 11.3062L12.0436 9.80617C11.7364 9.67527 11.3797 9.76317 11.1686 10.0218L9.61855 11.9156C7.18595 10.7686 5.22825 8.81093 4.0813 6.37832L5.97507 4.8283C6.23426 4.61749 6.32226 4.26038 6.1907 3.95329L4.69068 0.453244C4.5457 0.120861 4.1849 -0.0615085 3.8313 0.018864L0.581257 0.768873C0.240944 0.847459 -7.82362e-05 1.15055 1.90504e-08 1.49982C1.90504e-08 9.51554 6.49695 16 14.5002 16C14.8496 16.0002 15.1528 15.7592 15.2314 15.4187L15.9814 12.1687C16.0613 11.8134 15.8776 11.4514 15.5436 11.3062Z" fill="#192F60"/>
</svg>
